<svg width="87" height="102" viewBox="0 0 87 102" fill="none" xmlns="http://www.w3.org/2000/svg">
<path d="M43.3383 0C31.8443 0 20.821 4.56599 12.6935 12.6935C4.56599 20.821 0 31.8443 0 43.3383C0 54.8324 4.56599 65.8556 12.6935 73.9831C20.821 82.1106 31.8443 86.6766 43.3383 86.6766V98.7151C43.3383 100.55 45.3232 101.723 46.9122 100.803C56.251 95.3966 80.9418 77.5629 85.7831 52.0568C85.809 51.9127 85.834 51.7685 85.8584 51.6241C86.0685 50.4593 86.2711 49.2934 86.3945 48.0973C86.5758 46.5173 86.67 44.9286 86.6766 43.3383C86.6766 31.8443 82.1106 20.821 73.9831 12.6935C65.8556 4.56599 54.8323 0 43.3383 0Z"/>
</svg>